<svg xmlns="http://www.w3.org/2000/svg" viewBox="0 0 455.64 125.82"><defs><style>.cls-1,.cls-3{fill:none;stroke:#22b573;stroke-miterlimit:10;stroke-width:2px;}.cls-2{fill:#22b573;}.cls-3{stroke-linecap:round;}</style></defs><g id="Layer_2" data-name="Layer 2"><g id="Layer_1-2" data-name="Layer 1"><path class="cls-1" d="M428,20.5h4.2c6.81,0,13.14-4.07,17.49-9.65"/><path class="cls-2" d="M455,0c-.73,6-.75,13.93.64,19.55l-6.89-7.41-10-1.29C444.11,8.71,450.53,4.09,455,0Z"/><path d="M73.69,46.88c0-9.87.07-19.3.29-24.34h-.22c-2,6.77-12.24,31.61-18.65,47.52H51.3c-4.83-12.31-15.41-40-17.72-47.59h-.14c.36,5.76.5,17.5.5,26.14V70.06H30.06V19.66h5.83c6.91,17.28,15.62,39.89,17.5,45.58h.14c1.15-3.67,11.23-28.8,18.29-45.58h5.76v50.4H73.69Z"/><path d="M89.24,34.06c7.27,20.59,10.44,29.09,11.66,33H101c1.44-4.39,4.32-12.75,11.3-33H116L102.49,72.15c-3.82,10.66-6.41,13-12.89,13A24.52,24.52,0,0,1,86.29,85v-3.6a24.38,24.38,0,0,0,3.24.21c5.18,0,6.84-2.52,9.5-9.93L85.28,34.06Z"/><path d="M181.69,70.06h-3.24c-.29-.57-.43-3.16-.5-8.06-1.8,3.46-5.76,8.64-16.28,8.64-14.47,0-21.89-11-21.89-25.35,0-15,7.92-26.35,22.68-26.35,10.88,0,18.08,5.69,19.66,15h-3.89c-2.16-7.13-7.13-11.38-15.91-11.38-12.6,0-18.36,9.79-18.36,22.54,0,11.52,5.54,22,17.86,22C174.42,67,178,58.83,178,47.67v-.58H161.67v-3.6h20Z"/><path d="M194.43,52.49c.07,9.29,4.75,15.05,11.67,15.05,6.76,0,9.07-3.81,10.36-6.76h3.68c-1.52,4.75-5.33,10.15-14.19,10.15-10.94,0-15.19-9.43-15.19-18.58,0-10.3,5.11-19.15,15.62-19.15,11.09,0,14.62,9.57,14.62,16.34,0,1,0,2-.07,3Zm22.83-3.16c-.08-7.13-4-12.75-11-12.75-7.42,0-10.8,5.19-11.59,12.75Z"/><path d="M259.3,52c0,10-5.54,18.94-16.27,18.94-9.72,0-15.77-8-15.77-18.87,0-10.29,5.69-18.86,16.13-18.86C253,33.2,259.3,40.69,259.3,52Zm-28.22.07c0,8.57,4.61,15.48,12.24,15.48s12.17-6.4,12.17-15.48c0-8.49-4.32-15.48-12.32-15.48C235,36.58,231.08,43.42,231.08,52.06Z"/><path d="M279.68,56.31c0,11.23-5,14.47-11.67,14.47a19.77,19.77,0,0,1-4.32-.43V66.82a24.47,24.47,0,0,0,4.47.36c6.77,0,7.63-5.25,7.63-10.94V19.66h3.89Z"/><path d="M293.65,56.53c1.51,6.69,6,10.65,14.25,10.65,9.22,0,12.75-4.6,12.75-10.08,0-5.69-2.52-9.21-13.61-12-10.66-2.66-15.27-6.12-15.27-13.39,0-6.63,4.83-12.82,15.63-12.82,11.09,0,15.77,6.77,16.42,12.89h-4c-1.15-5.4-4.68-9.29-12.6-9.29-7.27,0-11.23,3.38-11.23,9s3.31,7.71,12.6,10c14.19,3.53,16.27,9.22,16.27,15.26,0,7.42-5.4,13.83-17.06,13.83-12.6,0-17.21-7.34-18.15-14.11Z"/><path d="M391.71,70.06V19.66h5.76c7.85,12.1,26.28,40.25,29.45,45.72H427c-.43-7.27-.36-14.69-.36-22.89V19.66h4v50.4h-5.33c-7.49-11.66-26.21-41-29.81-46.51h-.07c.36,6.62.29,14,.29,23.11v23.4Z"/><path class="cls-2" d="M385.42,44.84a28.16,28.16,0,1,1-28.16-28.16A28.16,28.16,0,0,1,385.42,44.84Zm-8.24-5.45h2.1a22.75,22.75,0,0,0-18.39-16.94v2.46a1.76,1.76,0,0,1-1.76,1.76h-2.75a1.77,1.77,0,0,0-1.46.79L354,28.83a1.7,1.7,0,0,1-1,.73l-1.65.41A1.77,1.77,0,0,0,350,31.68v.5a1.76,1.76,0,0,0,1.76,1.76H362a1.75,1.75,0,0,1,1.24.52l.79.78a1.75,1.75,0,0,0,1.24.52h1.15a1.76,1.76,0,0,1,.55,3.43L361.58,41a1.78,1.78,0,0,1-1.34-.1l-1.67-.83a6.09,6.09,0,0,0-2.78-.66h-.1A6.18,6.18,0,0,0,352,40.63L348.84,43a6.2,6.2,0,0,0-2.48,5v1.6a6.2,6.2,0,0,0,6.2,6.2h2.94a1.76,1.76,0,0,1,1.76,1.76v3.39a9,9,0,0,0,.94,4A3.16,3.16,0,0,0,361,66.64a3.12,3.12,0,0,0,2.62-1.4L365.12,63A18.33,18.33,0,0,1,368,59.71a1.78,1.78,0,0,0,.54-1l.49-2.59a1.72,1.72,0,0,1,.32-.73l2.13-2.84a1.77,1.77,0,0,0,.35-1.06V50.24A1.76,1.76,0,0,0,370,48.48h-.93a1.75,1.75,0,0,1-1.46-.79l-1.51-2.25a1.77,1.77,0,0,1,.91-2.65l.3-.1a1.74,1.74,0,0,1,1.53.21l2.07,1.38a1.79,1.79,0,0,0,1.76.11l1.75-.88a1.75,1.75,0,0,0,1-1.57v-.79A1.76,1.76,0,0,1,377.18,39.39Z"/><path d="M24.47,116.51c.51,2.23,2,3.55,4.75,3.55,3.08,0,4.25-1.53,4.25-3.36s-.84-3.07-4.53-4-5.09-2-5.09-4.47c0-2.21,1.61-4.27,5.21-4.27s5.25,2.26,5.47,4.3H33.19c-.39-1.8-1.57-3.1-4.21-3.1-2.42,0-3.74,1.13-3.74,3s1.1,2.57,4.2,3.34c4.73,1.17,5.43,3.07,5.43,5.08,0,2.48-1.81,4.61-5.69,4.61-4.2,0-5.74-2.44-6.05-4.7Z"/><path d="M39,119.25v6.57h-1.2V112c0-1,0-2,0-3h1.18c0,.46,0,1.18,0,2.16a4.4,4.4,0,0,1,4.22-2.45c2.83,0,4.8,2.38,4.8,6,0,4.32-2.3,6.6-5.21,6.6A3.93,3.93,0,0,1,39,119.25Zm7.75-4.49c0-2.79-1.34-4.88-3.72-4.88-2.9,0-4.1,1.83-4.1,5.09s.93,5.21,3.93,5.21C45.33,120.18,46.72,118.07,46.72,114.76Z"/><path d="M51,112.28c0-2,0-2.88,0-3.26h1.17c0,.38,0,1.15,0,2.69a4.56,4.56,0,0,1,4.18-3V110c-2.5.17-4.18,1.89-4.18,4.75V121H51Z"/><path d="M58.84,115.17c0,3.09,1.58,5,3.89,5a3.38,3.38,0,0,0,3.45-2.25h1.23a4.61,4.61,0,0,1-4.73,3.38c-3.65,0-5.06-3.14-5.06-6.19,0-3.44,1.7-6.39,5.2-6.39,3.7,0,4.88,3.19,4.88,5.45,0,.34,0,.67,0,1Zm7.61-1.06c0-2.38-1.32-4.25-3.67-4.25s-3.6,1.73-3.87,4.25Z"/><path d="M78.86,118.74A14.13,14.13,0,0,0,79,121H77.87a7.87,7.87,0,0,1-.21-1.85c-.41.89-1.47,2.14-3.94,2.14-2.78,0-4-1.8-4-3.6,0-2.64,2-3.84,5.64-3.84h2.28v-1.23c0-1.2-.36-2.8-3.1-2.8-2.42,0-2.78,1.27-3,2.25h-1.2c.15-1.32,1-3.36,4.27-3.36,2.74,0,4.28,1.15,4.28,3.79Zm-1.18-3.84H75.33c-2.67,0-4.32.7-4.32,2.76a2.51,2.51,0,0,0,2.76,2.55c3.43,0,3.91-2.28,3.91-4.88Z"/><path d="M92.08,103.33v14.24c0,1.15,0,2.25,0,3.45H91c0-.29-.07-1.41-.07-2-.6,1.46-1.94,2.3-4,2.3-3.12,0-5-2.54-5-6.14s2-6.44,5.3-6.44c2.4,0,3.36,1,3.72,1.8v-7.2Zm-9,11.79c0,3.29,1.7,5.06,3.77,5.06,3.16,0,4-2.18,4-5.45,0-3.09-.75-4.87-3.82-4.87C84.74,109.86,83.13,111.76,83.13,115.12Z"/><path d="M95.9,117.71a3.17,3.17,0,0,0,3.4,2.5c2.14,0,3-1,3-2.33s-.57-2-3.26-2.69c-3.1-.75-3.86-1.68-3.86-3.27s1.24-3.19,4-3.19,4,1.66,4.2,3.36h-1.2a2.83,2.83,0,0,0-3-2.25c-2.09,0-2.69,1-2.69,2s.58,1.65,2.95,2.23c3.39.82,4.23,1.92,4.23,3.72,0,2.19-1.78,3.53-4.3,3.53-2.74,0-4.27-1.44-4.61-3.6Z"/><path d="M107.56,103.33V111a4.19,4.19,0,0,1,4-2.31c1.7,0,4.06.87,4.06,4.66V121h-1.2v-7.39c0-2.38-1.08-3.72-3.08-3.72-2.37,0-3.74,1.46-3.74,4.41V121h-1.2V103.33Z"/><path d="M119.78,115.17c0,3.09,1.58,5,3.88,5a3.38,3.38,0,0,0,3.46-2.25h1.22a4.59,4.59,0,0,1-4.72,3.38c-3.65,0-5.07-3.14-5.07-6.19,0-3.44,1.71-6.39,5.21-6.39,3.7,0,4.87,3.19,4.87,5.45,0,.34,0,.67,0,1Zm7.6-1.06c0-2.38-1.32-4.25-3.67-4.25s-3.6,1.73-3.86,4.25Z"/><path d="M131.94,115.17c0,3.09,1.59,5,3.89,5a3.38,3.38,0,0,0,3.46-2.25h1.22a4.59,4.59,0,0,1-4.73,3.38c-3.64,0-5.06-3.14-5.06-6.19,0-3.44,1.7-6.39,5.21-6.39,3.69,0,4.87,3.19,4.87,5.45,0,.34,0,.67,0,1Zm7.61-1.06c0-2.38-1.32-4.25-3.67-4.25s-3.6,1.73-3.86,4.25Z"/><path d="M142.12,109h2.23v-3.74h1.2V109h2.86v1.13h-2.86V118c0,1.34.29,2.11,1.44,2.11a4.57,4.57,0,0,0,1.25-.14v1a4.2,4.2,0,0,1-1.49.22c-1.54,0-2.4-.77-2.4-2.69v-8.35h-2.23Z"/><path d="M155.29,109h2.24v-3.74h1.2V109h2.85v1.13h-2.85V118c0,1.34.28,2.11,1.44,2.11a4.46,4.46,0,0,0,1.24-.14v1a4.11,4.11,0,0,1-1.48.22c-1.54,0-2.4-.77-2.4-2.69v-8.35h-2.24Z"/><path d="M173.61,115c0,3.33-1.85,6.31-5.43,6.31-3.24,0-5.25-2.66-5.25-6.29,0-3.43,1.89-6.29,5.37-6.29C171.49,108.73,173.61,111.23,173.61,115Zm-9.41,0c0,2.86,1.53,5.16,4.08,5.16s4.05-2.13,4.05-5.16c0-2.83-1.44-5.16-4.1-5.16S164.2,112.14,164.2,115Z"/><path d="M182.82,112.12c0-1,0-2.16,0-3.1H184c0,.41.08,1.44.05,2.14a3.77,3.77,0,0,1,3.6-2.43,3.4,3.4,0,0,1,3.48,2.38,4.08,4.08,0,0,1,3.91-2.38c1.85,0,3.77,1.06,3.77,4.39V121h-1.2v-7.75c0-1.61-.57-3.36-2.81-3.36s-3.38,1.87-3.38,4.2V121h-1.18v-7.73c0-1.75-.52-3.38-2.73-3.38S184,112,184,114.42V121h-1.2Z"/><path d="M210.81,118.74A14.13,14.13,0,0,0,211,121h-1.15a7.87,7.87,0,0,1-.21-1.85c-.41.89-1.47,2.14-3.94,2.14-2.78,0-4-1.8-4-3.6,0-2.64,2-3.84,5.64-3.84h2.28v-1.23c0-1.2-.36-2.8-3.1-2.8-2.42,0-2.78,1.27-3,2.25h-1.2c.15-1.32,1-3.36,4.27-3.36,2.74,0,4.28,1.15,4.28,3.79Zm-1.18-3.84h-2.35c-2.67,0-4.32.7-4.32,2.76a2.51,2.51,0,0,0,2.76,2.55c3.43,0,3.91-2.28,3.91-4.88Z"/><path d="M216,119.25v6.57h-1.2V112c0-1,0-2,0-3h1.18c.05.46.05,1.18.05,2.16a4.4,4.4,0,0,1,4.22-2.45c2.83,0,4.8,2.38,4.8,6,0,4.32-2.3,6.6-5.21,6.6A3.93,3.93,0,0,1,216,119.25Zm7.75-4.49c0-2.79-1.35-4.88-3.72-4.88-2.91,0-4.11,1.83-4.11,5.09s.94,5.21,3.94,5.21C222.33,120.18,223.72,118.07,223.72,114.76Z"/><path d="M243.06,117.49c-.57,2.12-2,3.82-4.66,3.82-3,0-5.13-2.23-5.13-6.24,0-3.29,1.75-6.34,5.28-6.34a4.28,4.28,0,0,1,4.51,3.84h-1.22a3.25,3.25,0,0,0-3.32-2.71c-2.54,0-4,2.16-4,5.16s1.34,5.16,3.86,5.16c1.76,0,2.81-.89,3.44-2.69Z"/><path d="M255.68,115c0,3.33-1.84,6.31-5.42,6.31-3.24,0-5.26-2.66-5.26-6.29,0-3.43,1.9-6.29,5.38-6.29C253.57,108.73,255.68,111.23,255.68,115Zm-9.4,0c0,2.86,1.53,5.16,4.08,5.16s4-2.13,4-5.16c0-2.83-1.44-5.16-4.1-5.16S246.28,112.14,246.28,115Z"/><path d="M258.66,112c0-1.05,0-2.06,0-3h1.17c.05.38.07,1.94.05,2.28a3.92,3.92,0,0,1,4-2.57c2.14,0,4,1.2,4,4.51V121h-1.2v-7.58c0-2.14-.89-3.53-3-3.53-2.86,0-3.84,2.37-3.84,5V121h-1.2Z"/><path d="M271.26,109c1.94,5.5,3.29,9.24,3.74,10.78h0c.26-.89,1.61-4.47,3.93-10.78h1.28l-4.54,12h-1.44L270,109Z"/><path d="M282.85,115.17c0,3.09,1.59,5,3.89,5a3.39,3.39,0,0,0,3.46-2.25h1.22a4.6,4.6,0,0,1-4.73,3.38c-3.65,0-5.06-3.14-5.06-6.19,0-3.44,1.7-6.39,5.21-6.39,3.69,0,4.87,3.19,4.87,5.45,0,.34,0,.67,0,1Zm7.61-1.06c0-2.38-1.32-4.25-3.67-4.25s-3.6,1.73-3.87,4.25Z"/><path d="M294.64,112.28c0-2,0-2.88,0-3.26h1.18c0,.38,0,1.15,0,2.69a4.55,4.55,0,0,1,4.17-3V110c-2.49.17-4.17,1.89-4.17,4.75V121h-1.2Z"/><path d="M301.35,109h2.24v-3.74h1.2V109h2.85v1.13h-2.85V118c0,1.34.29,2.11,1.44,2.11a4.57,4.57,0,0,0,1.25-.14v1a4.2,4.2,0,0,1-1.49.22c-1.54,0-2.4-.77-2.4-2.69v-8.35h-2.24Z"/><path d="M310.21,115.17c0,3.09,1.58,5,3.89,5a3.39,3.39,0,0,0,3.46-2.25h1.22a4.6,4.6,0,0,1-4.73,3.38c-3.65,0-5.06-3.14-5.06-6.19,0-3.44,1.7-6.39,5.2-6.39,3.7,0,4.88,3.19,4.88,5.45,0,.34,0,.67,0,1Zm7.61-1.06c0-2.38-1.32-4.25-3.67-4.25s-3.6,1.73-3.87,4.25Z"/><path d="M322,112.28c0-2,0-2.88,0-3.26h1.18c0,.38,0,1.15,0,2.69a4.57,4.57,0,0,1,4.18-3V110c-2.49.17-4.18,1.89-4.18,4.75V121H322Z"/><path d="M336,103.33h1.2v2.33H336Zm0,5.69h1.2v12H336Z"/><path d="M341.15,112c0-1.05,0-2.06,0-3h1.18c.05.38.07,1.94.05,2.28a3.91,3.91,0,0,1,4-2.57c2.14,0,4,1.2,4,4.51V121h-1.2v-7.58c0-2.14-.89-3.53-3-3.53-2.86,0-3.84,2.37-3.84,5V121h-1.2Z"/><path d="M359.7,121V121c0-2,1.68-4.42,4.82-6.87,2.74-2.13,3.43-2.78,3.43-4.77a3,3,0,0,0-3.24-3.22c-2.16,0-3.28,1-3.69,3.34h-1.23a4.67,4.67,0,0,1,4.92-4.49,4.18,4.18,0,0,1,4.56,4.3c0,2.44-1,3.26-4,5.66-2.32,1.9-3.74,3.41-4.22,4.95h8.83l-.21,1.17Z"/><path d="M378.92,117.71a3.18,3.18,0,0,0,3.41,2.5c2.14,0,3-1,3-2.33s-.58-2-3.26-2.69c-3.1-.75-3.87-1.68-3.87-3.27s1.25-3.19,4-3.19,4,1.66,4.2,3.36h-1.2a2.82,2.82,0,0,0-3.05-2.25c-2.08,0-2.68,1-2.68,2s.57,1.65,2.95,2.23c3.38.82,4.22,1.92,4.22,3.72,0,2.19-1.77,3.53-4.29,3.53-2.74,0-4.28-1.44-4.61-3.6Z"/><path d="M387.71,109h2.23v-3.74h1.2V109H394v1.13h-2.85V118c0,1.34.29,2.11,1.44,2.11a4.57,4.57,0,0,0,1.25-.14v1a4.2,4.2,0,0,1-1.49.22c-1.54,0-2.4-.77-2.4-2.69v-8.35h-2.23Z"/><path d="M396.56,115.17c0,3.09,1.59,5,3.89,5a3.39,3.39,0,0,0,3.46-2.25h1.22a4.6,4.6,0,0,1-4.73,3.38c-3.65,0-5.06-3.14-5.06-6.19,0-3.44,1.7-6.39,5.21-6.39,3.69,0,4.87,3.19,4.87,5.45,0,.34,0,.67,0,1Zm7.61-1.06c0-2.38-1.32-4.25-3.67-4.25s-3.6,1.73-3.87,4.25Z"/><path d="M409.55,119.25v6.57h-1.2V112c0-1,0-2,0-3h1.18c.05.46.05,1.18.05,2.16a4.4,4.4,0,0,1,4.22-2.45c2.83,0,4.8,2.38,4.8,6,0,4.32-2.3,6.6-5.21,6.6A3.93,3.93,0,0,1,409.55,119.25Zm7.75-4.49c0-2.79-1.35-4.88-3.72-4.88-2.91,0-4.11,1.83-4.11,5.09s.94,5.21,3.94,5.21C415.91,120.18,417.3,118.07,417.3,114.76Z"/><path d="M421.81,117.71a3.18,3.18,0,0,0,3.41,2.5c2.13,0,3-1,3-2.33s-.58-2-3.27-2.69c-3.09-.75-3.86-1.68-3.86-3.27s1.25-3.19,4-3.19,4,1.66,4.2,3.36h-1.2a2.83,2.83,0,0,0-3.05-2.25c-2.09,0-2.69,1-2.69,2s.58,1.65,3,2.23c3.38.82,4.22,1.92,4.22,3.72,0,2.19-1.78,3.53-4.3,3.53-2.73,0-4.27-1.44-4.61-3.6Z"/><path d="M432.25,121v-3.09h1.2V121Z"/><line class="cls-3" x1="1" y1="20.5" x2="17.99" y2="20.5"/><path class="cls-2" d="M30.06,20.5C24.38,22.61,17.33,26.2,13,30L16.4,20.5,13,11C17.33,14.8,24.38,18.39,30.06,20.5Z"/></g></g></svg>